<?xml version="1.0" standalone="no"?>
<!DOCTYPE svg PUBLIC "-//W3C//DTD SVG 20010904//EN"
 "http://www.w3.org/TR/2001/REC-SVG-20010904/DTD/svg10.dtd">
<svg version="1.0" xmlns="http://www.w3.org/2000/svg"
 width="512.000000pt" height="512.000000pt" viewBox="0 0 512.000000 512.000000"
 preserveAspectRatio="xMidYMid meet">
<metadata>
Created by potrace 1.11, written by Peter Selinger 2001-2013
</metadata>
<g transform="translate(0.000000,512.000000) scale(0.100000,-0.100000)"
fill="#000000" stroke="none">
<path d="M634 4890 c-153 -33 -276 -167 -386 -423 -42 -97 -88 -245 -88 -284
0 -13 12 -35 26 -50 20 -20 31 -24 57 -19 46 9 53 20 82 126 29 108 123 307
185 392 24 34 60 69 88 85 45 27 52 28 187 27 157 0 258 -16 406 -65 173 -57
370 -164 516 -281 l65 -51 -118 -38 -118 -38 -56 33 c-197 119 -385 183 -592
201 -129 11 -157 -6 -227 -136 -94 -175 -133 -344 -130 -569 l2 -155 -67 -75
c-36 -41 -78 -92 -93 -113 -14 -20 -30 -34 -34 -30 -16 16 -58 262 -65 377 -8
135 -19 156 -78 156 -26 0 -40 -7 -56 -27 -21 -26 -22 -35 -16 -136 10 -151
30 -271 72 -419 l36 -128 -45 -92 c-215 -446 -246 -971 -86 -1452 137 -412
427 -761 862 -1040 595 -380 1337 -537 2041 -431 671 101 1335 455 1703 909
91 112 99 131 79 172 -16 35 -50 51 -85 39 -11 -3 -58 -52 -104 -108 -371
-451 -971 -767 -1647 -868 -209 -32 -573 -32 -780 0 -605 92 -1136 346 -1510
720 -178 178 -289 339 -375 543 -49 115 -106 317 -107 376 0 52 83 296 146
428 160 334 381 526 681 589 106 23 302 23 418 1 95 -18 233 -64 312 -103 221
-111 421 -315 512 -522 36 -84 40 -112 18 -131 -8 -7 -20 -29 -26 -50 -10 -34
-8 -44 15 -96 56 -121 171 -194 306 -194 135 0 242 66 301 185 34 70 34 104
-3 150 -27 34 -20 70 38 185 162 323 512 550 912 590 118 12 259 1 363 -29
279 -80 479 -266 629 -584 60 -127 142 -370 142 -418 -1 -60 -50 -236 -102
-368 -45 -110 -49 -126 -37 -149 14 -31 54 -48 91 -38 33 8 73 86 126 245 159
478 128 1004 -87 1449 l-45 93 36 127 c129 456 83 882 -136 1252 -98 167 -183
236 -317 262 -72 13 -279 4 -391 -17 -289 -56 -584 -204 -829 -416 l-82 -70
-122 20 c-330 55 -644 55 -974 0 l-122 -20 -88 76 c-230 199 -523 347 -801
405 -108 23 -361 35 -428 20z m3888 -173 c56 -33 109 -103 177 -236 116 -228
168 -505 141 -751 -12 -112 -47 -290 -59 -303 -4 -4 -22 14 -41 39 -18 26 -60
75 -93 110 l-60 64 2 158 c3 228 -36 396 -130 571 -70 130 -98 147 -227 136
-207 -18 -395 -82 -592 -201 l-56 -33 -118 38 -118 38 65 51 c201 161 466 286
689 326 129 23 136 24 258 22 106 -1 119 -3 162 -29z m-3485 -388 c87 -20 209
-64 283 -104 l45 -23 -77 -36 c-170 -78 -407 -223 -545 -335 -51 -41 -62 -46
-66 -32 -9 37 14 221 38 306 24 80 81 211 107 243 13 16 97 9 215 -19z m3261
19 c26 -32 84 -163 107 -243 25 -86 47 -269 38 -306 -5 -16 -11 -13 -52 20
-130 109 -363 255 -538 338 l-98 47 90 42 c103 49 239 91 335 103 95 12 107
12 118 -1z m-1358 -73 c312 -43 633 -142 910 -283 588 -297 967 -746 1080
-1279 17 -83 41 -263 34 -263 -1 0 -25 45 -53 101 -169 333 -409 541 -717 619
-428 110 -935 -46 -1251 -384 -97 -104 -182 -240 -224 -357 l-32 -89 -127 0
-127 0 -32 89 c-171 478 -761 826 -1304 771 -387 -39 -695 -266 -893 -660 -25
-50 -46 -90 -48 -90 -7 0 17 179 34 263 110 518 472 959 1030 1255 319 170
711 286 1087 322 127 12 499 4 633 -15z m-220 -2093 c0 -18 -34 -54 -70 -72
-75 -38 -193 -17 -234 42 -9 12 -16 26 -16 30 0 5 72 8 160 8 88 0 160 -3 160
-8z"/>
<path d="M1463 2390 c-35 -14 -43 -42 -43 -144 0 -111 14 -136 73 -136 56 0
71 27 75 134 4 86 2 95 -20 119 -27 30 -55 39 -85 27z"/>
<path d="M3603 2390 c-43 -18 -55 -52 -52 -149 5 -104 20 -131 76 -131 60 0
73 25 73 139 0 80 -3 103 -17 119 -22 25 -51 33 -80 22z"/>
<path d="M1255 2025 c-31 -30 -33 -77 -5 -105 18 -18 33 -20 135 -20 102 0
117 2 135 20 30 30 27 83 -6 109 -23 18 -41 21 -131 21 -97 0 -106 -2 -128
-25z"/>
<path d="M3606 2029 c-33 -26 -36 -79 -6 -109 18 -18 33 -20 135 -20 102 0
117 2 135 20 28 28 26 75 -5 105 -22 23 -31 25 -128 25 -90 0 -108 -3 -131
-21z"/>
<path d="M2243 1828 c-30 -15 -46 -58 -34 -90 11 -30 61 -71 114 -93 47 -20
146 -19 197 1 37 15 43 15 80 0 141 -56 352 42 310 145 -11 25 -46 49 -74 49
-7 0 -30 -13 -52 -30 -53 -40 -106 -40 -165 0 -24 16 -51 30 -59 30 -8 0 -35
-14 -59 -30 -59 -40 -112 -40 -165 0 -42 32 -58 35 -93 18z"/>
</g>
</svg>
